<svg version="1.2" baseProfile="tiny-ps" xmlns="http://www.w3.org/2000/svg" viewBox="0 0 182 44" width="182" height="44">
	<title>logo-svg</title>
	<style>
		tspan { white-space:pre }
		.shp0 { fill: #29a361 } 
		.shp1 { fill: #248f55 } 
		.shp2 { fill: #34cb79 } 
		.shp3 { fill: #2fb86e } 
		.txt4 { font-size: 19px;fill: #000000;font-weight: 700;font-family: "DejaVuSans-Bold", "DejaVu Sans" } 
	</style>
	<path id="Layer" class="shp0" d="M17.64 0L27.97 0L19.22 15.95C18.91 16.52 18.21 16.71 17.67 16.39L10.5 12.17C9.97 11.86 9.77 11.15 10.07 10.59L14.64 1.85C15.24 0.71 16.39 0 17.64 0Z" />
	<path id="Layer" class="shp1" d="M27.97 0L19.22 15.95C18.91 16.52 18.21 16.71 17.67 16.39L15.8 15.29C16.25 15.37 16.73 15.15 16.97 14.71L25.05 0L27.97 0Z" />
	<path id="Layer" class="shp2" d="M38.28 9.18L35.94 15.47C35.84 15.76 35.52 15.91 35.24 15.8L29.19 13.39C28.74 13.21 28.72 12.55 29.16 12.35C29.19 12.34 29.21 12.33 29.23 12.32L22.23 0L31.35 0C32.64 0 33.82 0.75 34.4 1.95L37.55 8.46C37.99 8.26 38.45 8.71 38.28 9.18Z" />
	<path id="Layer" class="shp3" d="M38.28 9.18L35.94 15.47C35.84 15.76 35.52 15.91 35.24 15.8L33.41 15.07L35.59 9.18C35.72 8.85 35.52 8.52 35.23 8.43C34.96 8.35 34.73 8.17 34.61 7.91L31.72 1.95C31.14 0.75 29.96 0 28.67 0L31.35 0C32.64 0 33.82 0.75 34.4 1.95L37.55 8.46C38 8.27 38.45 8.71 38.28 9.18Z" />
	<path id="Layer" class="shp0" d="M31.46 33.56L45.48 33.56L41.5 41.69C40.92 42.88 39.74 43.63 38.45 43.63L31.48 43.63C31.39 43.98 30.94 44.14 30.67 43.85L25.92 38.93C25.73 38.74 25.73 38.42 25.92 38.23L30.65 33.33C30.92 33.04 31.37 33.2 31.46 33.56L31.46 33.56Z" />
	<path id="Layer" class="shp1" d="M37.35 33.56L45.48 33.56L41.5 41.69C40.92 42.88 39.74 43.63 38.45 43.63L35.79 43.63C37.07 43.63 38.25 42.88 38.83 41.69L39.76 39.79C40.18 38.94 40.13 37.91 39.61 37.11L37.35 33.56L37.35 33.56Z" />
	<path id="Layer" class="shp0" d="M20.8 43.87L9.88 43.87C8.63 43.87 7.49 43.16 6.89 42.03L2.07 32.86L20.8 32.86C21.43 32.86 21.94 33.38 21.94 34.04L21.94 42.69C21.94 43.34 21.43 43.87 20.8 43.87Z" />
	<path id="Layer" class="shp1" d="M10.01 32.86L5.85 40.06L2.07 32.86L10.01 32.86Z" />
	<path id="Layer" class="shp1" d="M21.93 34.04L21.93 42.69C21.93 43.34 21.43 43.87 20.8 43.87L17.81 43.87C18.44 43.87 18.95 43.34 18.95 42.69L18.95 34.04C18.95 33.39 18.44 32.86 17.81 32.86L20.8 32.86C21.43 32.86 21.93 33.39 21.93 34.04Z" />
	<path id="Layer" class="shp2" d="M11.87 25.76C11.87 25.75 11.87 25.75 11.87 25.75L4.78 38.02L0.42 29.71C-0.2 28.54 -0.13 27.11 0.61 26.01L4.62 20.02C4.29 19.68 4.47 19.08 4.95 19.01L11.3 18.14C11.61 18.09 11.9 18.32 11.94 18.65L12.78 25.21C12.85 25.73 12.28 26.07 11.87 25.76Z" />
	<path id="Layer" class="shp3" d="M11.87 25.76C11.87 25.75 11.87 25.75 11.87 25.75L4.78 38.02L3.32 35.24L9.09 25.26L9.25 24.98C9.34 24.83 9.51 24.76 9.68 24.8C9.68 24.8 9.68 24.8 9.68 24.8C10.03 24.86 10.4 24.56 10.34 24.14L9.6 18.37L11.3 18.14C11.61 18.09 11.9 18.32 11.94 18.65L12.79 25.21C12.85 25.73 12.28 26.07 11.87 25.76Z" />
	<path id="Layer" class="shp2" d="M47.63 29.16L42.95 38.72L32.88 22.91C32.52 22.35 32.69 21.58 33.26 21.24L40.41 16.97C40.92 16.66 41.57 16.81 41.91 17.32L47.4 25.56C48.11 26.62 48.2 28.01 47.63 29.16Z" />
	<path id="Layer" class="shp3" d="M47.63 29.16L42.95 38.71L41.39 36.25L44.86 29.16C45.42 28.01 45.33 26.62 44.62 25.56L39.33 17.61L40.41 16.97C40.92 16.66 41.57 16.81 41.91 17.32L47.4 25.56C48.11 26.62 48.2 28.01 47.63 29.16Z" />
	<text id="COOPERITA" style="transform: matrix(1,0,0,1,56,32)" >
		<tspan x="0" y="0" class="txt4">C</tspan><tspan  y="0" class="txt4">O</tspan><tspan  y="0" class="txt4">O</tspan><tspan  y="0" class="txt4">P</tspan><tspan  y="0" class="txt4">E</tspan><tspan  y="0" class="txt4">R</tspan><tspan  y="0" class="txt4">I</tspan><tspan  y="0" class="txt4">T</tspan><tspan  y="0" class="txt4">A
</tspan>
	</text>
</svg>